<svg xmlns="http://www.w3.org/2000/svg" viewBox="0 0 800 600" width="800" height="600"><defs>
<linearGradient id="s" x1="0" y1="0" x2="0" y2="1"><stop offset="0" stop-color="#120a2a"/><stop offset="1" stop-color="#3f2466"/></linearGradient>
<radialGradient id="g"><stop offset="0" stop-color="#ffd27a" stop-opacity=".9"/><stop offset="1" stop-color="#ffd27a" stop-opacity="0"/></radialGradient>
<radialGradient id="m"><stop offset=".55" stop-color="#fff4d6" stop-opacity=".35"/><stop offset="1" stop-color="#fff4d6" stop-opacity="0"/></radialGradient>
</defs><rect width="800" height="600" fill="url(#s)"/><g fill="#fff" opacity=".7"><circle cx="519.9" cy="271.3" r="1.2"/><circle cx="83.3" cy="68.5" r="1.9"/><circle cx="155.9" cy="98.2" r="1.9"/><circle cx="271.1" cy="185.6" r="2"/><circle cx="762.2" cy="155.7" r="1.2"/><circle cx="362.6" cy="133.4" r="1.6"/><circle cx="205.5" cy="243.7" r="1"/><circle cx="624.4" cy="11.7" r="1.2"/><circle cx="352.6" cy="162.3" r="1.6"/><circle cx="523.3" cy="220.5" r="1.3"/><circle cx="670" cy="11.4" r="0.9"/><circle cx="326" cy="259.9" r="0.9"/><circle cx="624.5" cy="191.1" r="2"/><circle cx="298.9" cy="229.9" r="1.9"/><circle cx="482.7" cy="201.3" r="1.2"/><circle cx="709" cy="230.4" r="1.9"/><circle cx="511.2" cy="142.1" r="1.8"/><circle cx="222.7" cy="61.5" r="1.5"/><circle cx="176.8" cy="113.5" r="1.5"/><circle cx="706.8" cy="123.1" r="1"/><circle cx="546" cy="215.4" r="2.1"/><circle cx="27.9" cy="215.3" r="1"/><circle cx="285.7" cy="247.8" r="1.3"/><circle cx="52.7" cy="138" r="2"/><circle cx="462.4" cy="10.9" r="0.9"/><circle cx="248" cy="291.3" r="1.5"/></g><circle cx="140" cy="100" r="88" fill="url(#m)"/><circle cx="140" cy="100" r="40" fill="#fff1c9"/><circle cx="128" cy="92" r="6.4" fill="#efdca8"/><circle cx="150" cy="112" r="4" fill="#efdca8"/><path transform="translate(560 110) scale(0.9)" d="M0 0q-8-10-24-8 8 4 6 12-8-4-14 2 10 0 12 8 6-6 12-4 4-6 8-2 4-4 8 2 6-2 12 4 2-8 12-8-6-6-14-2-2-8 6-12-16-2-24 8z" fill="#140a1f"/><path d="M0 470 Q200 452 400 470 T800 470 V600 H0Z" fill="#1a2618"/><rect x="200" y="300" width="400" height="180" fill="#4a5a6e"/><path d="M170 305L260 225H540L630 305z" fill="#2a2038"/><rect x="520" y="230" width="26" height="40" fill="#1f1830"/><rect x="230" y="340" width="90" height="60" fill="#ffc857"/><path d="M275 340v60M230 370h90" stroke="#3b2a1a" stroke-width="3"/><rect x="480" y="340" width="90" height="60" fill="#ffc857"/><path d="M525 340v60M480 370h90" stroke="#3b2a1a" stroke-width="3"/><rect x="370" y="360" width="60" height="120" fill="#7a3b1b"/><circle cx="420" cy="420" r="4" fill="#ffc857"/><path d="M170 305 Q215 277 260 225 Q330 237 400 225 Q470 237 540 225 Q585 277 630 305" fill="none" stroke="#0d0714" stroke-width="2"/><circle cx="179" cy="304.2" r="10" fill="#b066ff" opacity=".25"/><circle cx="179" cy="304.2" r="4.5" fill="#b066ff"/><circle cx="197" cy="291" r="10" fill="#ff8a1f" opacity=".25"/><circle cx="197" cy="291" r="4.5" fill="#ff8a1f"/><circle cx="215" cy="276" r="10" fill="#b066ff" opacity=".25"/><circle cx="215" cy="276" r="4.5" fill="#b066ff"/><circle cx="233" cy="259" r="10" fill="#ff8a1f" opacity=".25"/><circle cx="233" cy="259" r="4.5" fill="#ff8a1f"/><circle cx="251" cy="240.2" r="10" fill="#b066ff" opacity=".25"/><circle cx="251" cy="240.2" r="4.5" fill="#b066ff"/><circle cx="274" cy="232.2" r="10" fill="#ff8a1f" opacity=".25"/><circle cx="274" cy="232.2" r="4.5" fill="#ff8a1f"/><circle cx="302" cy="235" r="10" fill="#b066ff" opacity=".25"/><circle cx="302" cy="235" r="4.5" fill="#b066ff"/><circle cx="330" cy="236" r="10" fill="#ff8a1f" opacity=".25"/><circle cx="330" cy="236" r="4.5" fill="#ff8a1f"/><circle cx="358" cy="235" r="10" fill="#b066ff" opacity=".25"/><circle cx="358" cy="235" r="4.5" fill="#b066ff"/><circle cx="386" cy="232.2" r="10" fill="#ff8a1f" opacity=".25"/><circle cx="386" cy="232.2" r="4.5" fill="#ff8a1f"/><circle cx="414" cy="232.2" r="10" fill="#b066ff" opacity=".25"/><circle cx="414" cy="232.2" r="4.5" fill="#b066ff"/><circle cx="442" cy="235" r="10" fill="#ff8a1f" opacity=".25"/><circle cx="442" cy="235" r="4.5" fill="#ff8a1f"/><circle cx="470" cy="236" r="10" fill="#b066ff" opacity=".25"/><circle cx="470" cy="236" r="4.5" fill="#b066ff"/><circle cx="498" cy="235" r="10" fill="#ff8a1f" opacity=".25"/><circle cx="498" cy="235" r="4.5" fill="#ff8a1f"/><circle cx="526" cy="232.2" r="10" fill="#b066ff" opacity=".25"/><circle cx="526" cy="232.2" r="4.5" fill="#b066ff"/><circle cx="549" cy="240.2" r="10" fill="#ff8a1f" opacity=".25"/><circle cx="549" cy="240.2" r="4.5" fill="#ff8a1f"/><circle cx="567" cy="259" r="10" fill="#b066ff" opacity=".25"/><circle cx="567" cy="259" r="4.5" fill="#b066ff"/><circle cx="585" cy="276" r="10" fill="#ff8a1f" opacity=".25"/><circle cx="585" cy="276" r="4.5" fill="#ff8a1f"/><circle cx="603" cy="291" r="10" fill="#b066ff" opacity=".25"/><circle cx="603" cy="291" r="4.5" fill="#b066ff"/><circle cx="621" cy="304.2" r="10" fill="#ff8a1f" opacity=".25"/><circle cx="621" cy="304.2" r="4.5" fill="#ff8a1f"/><g transform="translate(120 450) scale(1.1)"><path d="M-26 40V0a26 26 0 0 1 52 0v40l-9-8-8 8-9-8-9 8-8-8z" fill="#f4f1ff" opacity=".93"/><ellipse cx="-9" cy="-2" rx="4" ry="6" fill="#241638"/><ellipse cx="9" cy="-2" rx="4" ry="6" fill="#241638"/><ellipse cy="14" rx="5" ry="7" fill="#241638"/></g><g transform="translate(680 440) scale(0.9)"><path d="M-26 40V0a26 26 0 0 1 52 0v40l-9-8-8 8-9-8-9 8-8-8z" fill="#f4f1ff" opacity=".93"/><ellipse cx="-9" cy="-2" rx="4" ry="6" fill="#241638"/><ellipse cx="9" cy="-2" rx="4" ry="6" fill="#241638"/><ellipse cy="14" rx="5" ry="7" fill="#241638"/></g><g transform="translate(300 505) scale(0.7)"><path d="M-26 40V0a26 26 0 0 1 52 0v40l-9-8-8 8-9-8-9 8-8-8z" fill="#f4f1ff" opacity=".93"/><ellipse cx="-9" cy="-2" rx="4" ry="6" fill="#241638"/><ellipse cx="9" cy="-2" rx="4" ry="6" fill="#241638"/><ellipse cy="14" rx="5" ry="7" fill="#241638"/></g><g transform="translate(460 500) scale(0.8)"><circle r="44" fill="url(#g)"/><ellipse cx="-14" rx="18" ry="24" fill="#e8620f"/><ellipse cx="14" rx="18" ry="24" fill="#e8620f"/><ellipse rx="20" ry="26" fill="#ff7a1a"/><path d="M-3-24q2-12 10-14l2 4q-6 2-6 10z" fill="#3d6b2a"/><path d="M-14-6l6-9 6 9zM2-6l6-9 6 9zM-16 6q16 12 32 0l-5 6-5-4-6 4-6-4-5 4z" fill="#ffe28a"/></g><g transform="translate(520 510) scale(0.6)"><circle r="44" fill="url(#g)"/><ellipse cx="-14" rx="18" ry="24" fill="#e8620f"/><ellipse cx="14" rx="18" ry="24" fill="#e8620f"/><ellipse rx="20" ry="26" fill="#ff7a1a"/><path d="M-3-24q2-12 10-14l2 4q-6 2-6 10z" fill="#3d6b2a"/><path d="M-14-6l6-9 6 9zM2-6l6-9 6 9zM-16 6q16 12 32 0l-5 6-5-4-6 4-6-4-5 4z" fill="#ffe28a"/></g></svg>
